<?xml version="1.0" encoding="UTF-8"?>
<svg id="Camada_2" xmlns="http://www.w3.org/2000/svg" viewBox="0 0 312.4 96.96">
  <defs>
    <style>
      .cls-1 {
        fill: #fd6cb4;
      }
    </style>
  </defs>
  <g id="Camada_1-2" data-name="Camada_1">
    <g>
      <path class="cls-1" d="M28.58,0c-3.56,0-8.03.96-10.13,4.83l-1.42,2.24V2.89c0-.89-.72-1.61-1.61-1.61H1.61c-.89,0-1.61.72-1.61,1.61v91.5c0,.89.72,1.61,1.61,1.61h13.81c.89,0,1.61-.72,1.61-1.61V14.77c0-1.24,1.01-2.25,2.25-2.25s2.25,1.01,2.25,2.25v79.63c0,.89.72,1.61,1.61,1.61h13.81c.89,0,1.61-.72,1.61-1.61V12.2c0-8.35-5.79-12.2-9.95-12.2Z"/>
      <path class="cls-1" d="M63.89,0h-3.21c-9.75,0-17.66,7.59-17.66,17.34v61.97c0,9.75,7.91,17.66,17.66,17.66h3.21c9.75,0,17.66-7.91,17.66-17.66V17.34c0-9.75-7.91-17.34-17.66-17.34ZM62.29,84.12c-1.24,0-2.25-1.01-2.25-2.25V14.77c0-1.24,1.01-2.25,2.25-2.25s2.25,1.01,2.25,2.25v67.1c0,1.24-1.01,2.25-2.25,2.25Z"/>
      <path class="cls-1" d="M119.96,1.28h-13.75c-.86,0-1.57.68-1.6,1.54l-2.18,51.76-2.18-51.76c-.04-.86-.74-1.54-1.6-1.54h-13.75c-.93,0-1.67.79-1.6,1.72l6.74,91.5c.06.84.76,1.49,1.6,1.49h21.56c.84,0,1.54-.65,1.6-1.49L121.56,3.01c.07-.93-.67-1.72-1.6-1.72Z"/>
      <path class="cls-1" d="M144.16,0h-3.21c-9.75,0-17.66,7.59-17.66,17.34v61.97c0,9.75,7.91,17.66,17.66,17.66h3.21c9.75,0,17.66-7.91,17.66-17.66V17.34c0-9.75-7.91-17.34-17.66-17.34ZM144.8,81.87c0,1.24-1.01,2.25-2.25,2.25s-2.25-1.01-2.25-2.25V14.77c0-1.24,1.01-2.25,2.25-2.25s2.25,1.01,2.25,2.25v67.1Z"/>
      <path class="cls-1" d="M203.24,63.25h-13.81c-.89,0-1.61.72-1.61,1.61v16.89c0,1.22-.91,2.31-2.13,2.37-1.3.07-2.37-.96-2.37-2.24V14.85c0-1.09.74-2.08,1.8-2.29,1.44-.28,2.69.82,2.69,2.2v17.02c0,.89.72,1.61,1.61,1.61h13.81c.89,0,1.61-.72,1.61-1.61v-14.13C204.84,7.91,196.94,0,187.18,0h-3.21C174.22,0,166.31,7.91,166.31,17.66v61.65c0,9.75,7.91,17.66,17.66,17.66h3.21c9.75,0,17.66-7.91,17.66-17.66v-14.45c0-.89-.72-1.61-1.61-1.61Z"/>
      <rect class="cls-1" x="209.34" y="20.55" width="17.02" height="75.45" rx="1.61" ry="1.61"/>
      <path class="cls-1" d="M217.85,0c-4.7,0-8.51,3.81-8.51,8.51s3.81,8.51,8.51,8.51,8.51-3.81,8.51-8.51S222.54,0,217.85,0Z"/>
      <path class="cls-1" d="M259.42,0c-3.56,0-8.03.96-10.13,4.83l-1.42,2.24V2.89c0-.89-.72-1.61-1.61-1.61h-13.81c-.89,0-1.61.72-1.61,1.61v91.5c0,.89.72,1.61,1.61,1.61h13.81c.89,0,1.61-.72,1.61-1.61V14.77c0-1.24,1.01-2.25,2.25-2.25s2.25,1.01,2.25,2.25v79.63c0,.89.72,1.61,1.61,1.61h13.81c.89,0,1.61-.72,1.61-1.61V12.2c0-8.35-5.79-12.2-9.95-12.2Z"/>
      <path class="cls-1" d="M310.79,63.25h-13.81c-.89,0-1.61.72-1.61,1.61v16.89c0,1.22-.91,2.31-2.13,2.37-1.3.07-2.37-.96-2.37-2.24v-34.35c0-.89.72-1.61,1.61-1.61h18.3c.89,0,1.61-.72,1.61-1.61v-26.97C312.4,7.76,304.64,0,295.06,0h-3.85c-9.58,0-17.34,7.76-17.34,17.34v61.97c0,9.75,7.91,17.66,17.66,17.66h3.21c9.75,0,17.66-7.91,17.66-17.66v-14.45c0-.89-.72-1.61-1.61-1.61ZM290.89,14.77c0-1.37,1.23-2.46,2.65-2.21,1.1.19,1.84,1.23,1.84,2.34v19.46c0,1.24-1.01,2.25-2.25,2.25s-2.25-1.01-2.25-2.25V14.77Z"/>
    </g>
  </g>
</svg>