<?xml version="1.0" encoding="UTF-8"?>
<svg xmlns="http://www.w3.org/2000/svg" version="1.1" viewBox="0 0 32 32">
  <defs>
    <style>
      .cls-1 {
        fill: #fd6cb4;
      }
    </style>
  </defs>
  <!-- Generator: Adobe Illustrator 28.6.0, SVG Export Plug-In . SVG Version: 1.2.0 Build 709)  -->
  <g>
    <g id="Camada_1">
      <g>
        <path class="cls-1" d="M12.13.63c-1.13,0-2.55.31-3.21,1.53l-.45.71v-1.83H3.07v29.52c0,.28.23.51.51.51h4.38c.28,0,.51-.23.51-.51V5.31c0-.39.32-.71.71-.71s.71.32.71.71v25.25c0,.28.23.51.51.51h4.38c.28,0,.51-.23.51-.51V4.5c0-2.65-1.83-3.87-3.16-3.87Z"/>
        <path class="cls-1" d="M28.42,20.68h-4.38c-.28,0-.51.23-.51.51v5.36c0,.39-.29.73-.67.75-.41.02-.75-.31-.75-.71V5.34c0-.34.23-.66.57-.73.46-.09.85.26.85.7v5.4c0,.28.23.51.51.51h4.38c.28,0,.51-.23.51-.51v-4.58c0-3.04-2.46-5.5-5.5-5.5h-1.22c-3.04,0-5.5,2.46-5.5,5.5v19.65c0,3.09,2.51,5.6,5.6,5.6h1.02c3.09,0,5.6-2.51,5.6-5.6v-4.58c0-.28-.23-.51-.51-.51Z"/>
      </g>
    </g>
  </g>
</svg>